<svg width="97" height="97" viewBox="0 0 97 97" fill="none" xmlns="http://www.w3.org/2000/svg">
<circle cx="48.5" cy="43.5" r="15.25" stroke="#FCBF30" stroke-width="0.5"/>
<g filter="url(#filter0_d)">
<circle cx="48.4999" cy="43.5" r="12.9134" fill="url(#paint0_linear)"/>
</g>
<path d="M50.3125 49H47.6719V40.5469H50.3125V49ZM47.5156 38.3672C47.5156 37.9922 47.651 37.6849 47.9219 37.4453C48.1927 37.2057 48.5443 37.0859 48.9766 37.0859C49.4089 37.0859 49.7604 37.2057 50.0312 37.4453C50.3021 37.6849 50.4375 37.9922 50.4375 38.3672C50.4375 38.7422 50.3021 39.0495 50.0312 39.2891C49.7604 39.5286 49.4089 39.6484 48.9766 39.6484C48.5443 39.6484 48.1927 39.5286 47.9219 39.2891C47.651 39.0495 47.5156 38.7422 47.5156 38.3672Z" fill="white" fill-opacity="0.5"/>
<defs>
<filter id="filter0_d" x="0.586426" y="0.586548" width="95.8269" height="95.8269" filterUnits="userSpaceOnUse" color-interpolation-filters="sRGB">
<feFlood flood-opacity="0" result="BackgroundImageFix"/>
<feColorMatrix in="SourceAlpha" type="matrix" values="0 0 0 0 0 0 0 0 0 0 0 0 0 0 0 0 0 0 127 0"/>
<feOffset dy="5"/>
<feGaussianBlur stdDeviation="17.5"/>
<feColorMatrix type="matrix" values="0 0 0 0 1 0 0 0 0 0.755389 0 0 0 0 0.126389 0 0 0 0.5 0"/>
<feBlend mode="normal" in2="BackgroundImageFix" result="effect1_dropShadow"/>
<feBlend mode="normal" in="SourceGraphic" in2="effect1_dropShadow" result="shape"/>
</filter>
<linearGradient id="paint0_linear" x1="48" y1="31" x2="49.5" y2="58" gradientUnits="userSpaceOnUse">
<stop stop-color="#F3C24D"/>
<stop offset="1" stop-color="#F1934F"/>
</linearGradient>
</defs>
</svg>
